<svg width="144" height="32" viewBox="0 0 144 32" fill="none" xmlns="http://www.w3.org/2000/svg">
<g clip-path="url(#clip0_23_90)">
<path opacity="0.1" fill-rule="evenodd" clip-rule="evenodd" d="M0 16C0 7.16344 7.16344 0 16 0C24.8366 0 32 7.16344 32 16C32 24.8366 24.8366 32 16 32C7.16344 32 0 24.8366 0 16Z" fill="white"/>
<path fill-rule="evenodd" clip-rule="evenodd" d="M16.0009 7.46667C13.6834 7.46667 13.3925 7.47681 12.4823 7.51823C11.5739 7.55983 10.9538 7.70366 10.4112 7.91468C9.84993 8.13264 9.37384 8.4242 8.89952 8.89869C8.42485 9.37301 8.13329 9.8491 7.91462 10.4102C7.70307 10.9529 7.55906 11.5732 7.51818 12.4813C7.47746 13.3915 7.4668 13.6826 7.4668 16.0001C7.4668 18.3176 7.47711 18.6076 7.51835 19.5178C7.56013 20.4263 7.70395 21.0464 7.9148 21.589C8.13294 22.1502 8.4245 22.6263 8.89899 23.1006C9.37313 23.5753 9.84922 23.8676 10.4101 24.0855C10.9531 24.2965 11.5733 24.4404 12.4816 24.482C13.3918 24.5234 13.6825 24.5335 15.9999 24.5335C18.3176 24.5335 18.6075 24.5234 19.5178 24.482C20.4262 24.4404 21.047 24.2965 21.59 24.0855C22.151 23.8676 22.6264 23.5753 23.1006 23.1006C23.5752 22.6263 23.8668 22.1502 24.0855 21.5891C24.2952 21.0464 24.4392 20.4261 24.4819 19.518C24.5228 18.6078 24.5335 18.3176 24.5335 16.0001C24.5335 13.6826 24.5228 13.3917 24.4819 12.4815C24.4392 11.573 24.2952 10.9529 24.0855 10.4103C23.8668 9.8491 23.5752 9.37301 23.1006 8.89869C22.6259 8.42402 22.1512 8.13246 21.5894 7.91468C21.0454 7.70366 20.425 7.55983 19.5165 7.51823C18.6063 7.47681 18.3165 7.46667 15.9983 7.46667H16.0009ZM15.2354 9.00444C15.4626 9.00409 15.7161 9.00444 16.0009 9.00444C18.2793 9.00444 18.5494 9.01262 19.4491 9.05351C20.2811 9.09156 20.7327 9.23058 21.0335 9.34738C21.4317 9.50205 21.7156 9.68694 22.0141 9.98561C22.3128 10.2843 22.4977 10.5687 22.6527 10.967C22.7695 11.2674 22.9087 11.719 22.9466 12.551C22.9875 13.4505 22.9963 13.7208 22.9963 15.9981C22.9963 18.2755 22.9875 18.5457 22.9466 19.4453C22.9085 20.2773 22.7695 20.7288 22.6527 21.0293C22.498 21.4275 22.3128 21.7111 22.0141 22.0096C21.7154 22.3082 21.4319 22.4931 21.0335 22.6478C20.733 22.7651 20.2811 22.9038 19.4491 22.9418C18.5495 22.9827 18.2793 22.9916 16.0009 22.9916C13.7223 22.9916 13.4522 22.9827 12.5527 22.9418C11.7207 22.9034 11.2691 22.7644 10.9681 22.6476C10.5699 22.4929 10.2855 22.3081 9.98679 22.0094C9.68812 21.7107 9.50323 21.427 9.3482 21.0286C9.2314 20.7281 9.0922 20.2766 9.05433 19.4446C9.01344 18.545 9.00527 18.2748 9.00527 15.996C9.00527 13.7172 9.01344 13.4484 9.05433 12.5488C9.09238 11.7168 9.2314 11.2653 9.3482 10.9645C9.50287 10.5662 9.68812 10.2818 9.98679 9.98312C10.2855 9.68445 10.5699 9.49956 10.9681 9.34454C11.2689 9.2272 11.7207 9.08853 12.5527 9.05031C13.3399 9.01476 13.645 9.00409 15.2354 9.00231V9.00444ZM20.556 10.4214C19.9906 10.4214 19.532 10.8795 19.532 11.445C19.532 12.0103 19.9906 12.469 20.556 12.469C21.1213 12.469 21.58 12.0103 21.58 11.445C21.58 10.8797 21.1213 10.4214 20.556 10.4214ZM16.0009 11.6178C13.5808 11.6178 11.6187 13.58 11.6187 16.0001C11.6187 18.4202 13.5808 20.3815 16.0009 20.3815C18.4211 20.3815 20.3825 18.4202 20.3825 16.0001C20.3825 13.58 18.4211 11.6178 16.0009 11.6178ZM16.0009 13.1556C17.5718 13.1556 18.8454 14.429 18.8454 16.0001C18.8454 17.5709 17.5718 18.8445 16.0009 18.8445C14.4299 18.8445 13.1564 17.5709 13.1564 16.0001C13.1564 14.429 14.4299 13.1556 16.0009 13.1556Z" fill="white"/>
<path opacity="0.1" fill-rule="evenodd" clip-rule="evenodd" d="M56 16C56 7.16344 63.1634 0 72 0C80.8366 0 88 7.16344 88 16C88 24.8366 80.8366 32 72 32C63.1634 32 56 24.8366 56 16Z" fill="white"/>
<path fill-rule="evenodd" clip-rule="evenodd" d="M71.5208 13.005L71.5544 13.5586L70.9948 13.4908C68.9579 13.2309 67.1784 12.3497 65.6676 10.8695L64.9289 10.1351L64.7387 10.6774C64.3358 11.8864 64.5932 13.1632 65.4325 14.0219C65.8802 14.4964 65.7795 14.5642 65.0073 14.2817C64.7387 14.1913 64.5036 14.1235 64.4812 14.1574C64.4029 14.2365 64.6715 15.2647 64.8841 15.6715C65.1751 16.2364 65.7683 16.79 66.4174 17.1177L66.9658 17.3776L66.3167 17.3889C65.6899 17.3889 65.6676 17.4002 65.7347 17.6374C65.9585 18.3719 66.8427 19.1515 67.8276 19.4904L68.5214 19.7277L67.9171 20.0893C67.0218 20.609 65.9697 20.9028 64.9177 20.9254C64.4141 20.9367 64 20.9819 64 21.0158C64 21.1287 65.3654 21.7615 66.16 22.01C68.5438 22.7445 71.3753 22.4281 73.5017 21.1739C75.0126 20.2813 76.5235 18.5074 77.2286 16.79C77.6091 15.8748 77.9896 14.2026 77.9896 13.4004C77.9896 12.8807 78.0232 12.8129 78.6499 12.1915C79.0192 11.8299 79.3662 11.4345 79.4333 11.3215C79.5452 11.1068 79.534 11.1068 78.9633 11.2989C78.012 11.6378 77.8777 11.5926 78.3477 11.0842C78.6947 10.7226 79.1088 10.0673 79.1088 9.87524C79.1088 9.84134 78.9409 9.89783 78.7506 9.99952C78.5492 10.1125 78.1015 10.282 77.7658 10.3837L77.1614 10.5758L76.613 10.2029C76.3108 9.99952 75.8856 9.77355 75.6617 9.70576C75.0909 9.54758 74.218 9.57017 73.7032 9.75095C72.3042 10.2594 71.4201 11.57 71.5208 13.005Z" fill="white"/>
<path opacity="0.1" fill-rule="evenodd" clip-rule="evenodd" d="M112 16C112 7.16344 119.163 0 128 0C136.837 0 144 7.16344 144 16C144 24.8366 136.837 32 128 32C119.163 32 112 24.8366 112 16Z" fill="white"/>
<path fill-rule="evenodd" clip-rule="evenodd" d="M134.668 10.4996C135.402 10.7011 135.981 11.2948 136.177 12.0488C136.533 13.4154 136.533 16.2667 136.533 16.2667C136.533 16.2667 136.533 19.1179 136.177 20.4845C135.981 21.2386 135.402 21.8323 134.668 22.0339C133.337 22.4 128 22.4 128 22.4C128 22.4 122.663 22.4 121.332 22.0339C120.598 21.8323 120.02 21.2386 119.823 20.4845C119.467 19.1179 119.467 16.2667 119.467 16.2667C119.467 16.2667 119.467 13.4154 119.823 12.0488C120.02 11.2948 120.598 10.7011 121.332 10.4996C122.663 10.1334 128 10.1334 128 10.1334C128 10.1334 133.337 10.1334 134.668 10.4996ZM126.4 13.8666V19.2L130.667 16.5334L126.4 13.8666Z" fill="white"/>
</g>
<defs>
<clipPath id="clip0_23_90">
<rect width="144" height="32" fill="white"/>
</clipPath>
</defs>
</svg>
